<svg version="1" xmlns="http://www.w3.org/2000/svg" width="682.667" height="682.667" viewBox="0 0 512.000000 512.000000"><path d="M38.6 1.1C21.1 5.3 4.8 21.9 1 39.6.3 42.9 0 113 .2 259l.3 214.5 2.8 6.6c5.3 12.6 16 23.3 28.7 28.6l6.5 2.8h435l6.5-2.8c12.7-5.3 23.4-16 28.7-28.6l2.8-6.6v-435l-2.8-6.6c-5.3-12.6-16-23.3-28.7-28.6L473.5.5 258 .3C130.2.3 40.9.6 38.6 1.1zM124 163.3l93.5 40.2v30.8l-94 40.3C71.8 296.8 29.4 315 29.2 315c-.1 0-.1-9.1 0-20.2l.3-20.2 67-25.3c36.9-13.9 70.7-26.5 75.3-27.9 4.5-1.4 8.2-2.7 8.2-2.9 0-.2-2.8-1.3-6.2-2.4-4.6-1.4-127.6-46.7-143-52.6-1.6-.7-1.8-2.6-1.8-20.6 0-10.9.3-19.9.8-19.8.4 0 42.8 18.1 94.2 40.2zm360 211.2V390H288v-31h196v15.5z"/></svg>